{
    "asset" : {
        "generator" : "Khronos glTF Blender I/O v1.3.48",
        "version" : "2.0"
    },
    "scene" : 0,
    "scenes" : [
        {
            "name" : "Scene",
            "nodes" : [
                6
            ]
        }
    ],
    "nodes" : [
        {
            "mesh" : 0,
            "name" : "Castle.001"
        },
        {
            "children" : [
                0
            ],
            "name" : "Castle",
            "rotation" : [
                0,
                0.7071068286895752,
                0,
                0.7071068286895752
            ],
            "scale" : [
                2.200000047683716,
                2.200000047683716,
                2.200000047683716
            ],
            "translation" : [
                -48.652828216552734,
                36.837921142578125,
                -39.69847106933594
            ]
        },
        {
            "mesh" : 1,
            "name" : "Grass.001"
        },
        {
            "children" : [
                2
            ],
            "name" : "Grass",
            "rotation" : [
                0,
                1,
                0,
                0
            ],
            "scale" : [
                2.200000047683716,
                2.200000047683716,
                2.200000047683716
            ],
            "translation" : [
                90.1622085571289,
                3.4401700496673584,
                -4.437809944152832
            ]
        },
        {
            "children" : [
                1,
                3
            ],
            "name" : "Root"
        },
        {
            "children" : [
                4
            ],
            "name" : "RootNode (model correction matrix)"
        },
        {
            "children" : [
                5
            ],
            "name" : "RootNode (gltf orientation matrix)"
        }
    ],
    "meshes" : [
        {
            "name" : "Castle",
            "primitives" : [
                {
                    "attributes" : {
                        "POSITION" : 0,
                        "NORMAL" : 1
                    },
                    "indices" : 2
                }
            ]
        },
        {
            "name" : "Grass",
            "primitives" : [
                {
                    "attributes" : {
                        "POSITION" : 3,
                        "NORMAL" : 4
                    },
                    "indices" : 5
                }
            ]
        }
    ],
    "accessors" : [
        {
            "bufferView" : 0,
            "componentType" : 5126,
            "count" : 45,
            "max" : [
                0.7581400275230408,
                -11.250349998474121,
                29.87026023864746
            ],
            "min" : [
                -28.421489715576172,
                -12.544560432434082,
                19.89311981201172
            ],
            "type" : "VEC3"
        },
        {
            "bufferView" : 1,
            "componentType" : 5126,
            "count" : 45,
            "type" : "VEC3"
        },
        {
            "bufferView" : 2,
            "componentType" : 5123,
            "count" : 144,
            "type" : "SCALAR"
        },
        {
            "bufferView" : 3,
            "componentType" : 5126,
            "count" : 1820,
            "max" : [
                98.44196319580078,
                10.936806678771973,
                53.51271057128906
            ],
            "min" : [
                -18.76910972595215,
                -14.286479949951172,
                -52.55454635620117
            ],
            "type" : "VEC3"
        },
        {
            "bufferView" : 4,
            "componentType" : 5126,
            "count" : 1820,
            "type" : "VEC3"
        },
        {
            "bufferView" : 5,
            "componentType" : 5123,
            "count" : 6732,
            "type" : "SCALAR"
        }
    ],
    "bufferViews" : [
        {
            "buffer" : 0,
            "byteLength" : 540,
            "byteOffset" : 0
        },
        {
            "buffer" : 0,
            "byteLength" : 540,
            "byteOffset" : 540
        },
        {
            "buffer" : 0,
            "byteLength" : 288,
            "byteOffset" : 1080
        },
        {
            "buffer" : 0,
            "byteLength" : 21840,
            "byteOffset" : 1368
        },
        {
            "buffer" : 0,
            "byteLength" : 21840,
            "byteOffset" : 23208
        },
        {
            "buffer" : 0,
            "byteLength" : 13464,
            "byteOffset" : 45048
        }
    ],
    "buffers" : [
        {
            "byteLength" : 58512,
            "uri" : "data:application/octet-stream;base64,"
        }
    ]
}
