{
    "asset" : {
        "generator" : "Khronos glTF Blender I/O v1.1.46",
        "version" : "2.0"
    },
    "scene" : 0,
    "scenes" : [
        {
            "name" : "Scene",
            "nodes" : [
                7
            ]
        }
    ],
    "nodes" : [
        {
            "mesh" : 0,
            "name" : "Castle.001"
        },
        {
            "children" : [
                0
            ],
            "name" : "Castle",
            "rotation" : [
                0,
                0.7071068286895752,
                0,
                0.7071068286895752
            ],
            "scale" : [
                2.200000047683716,
                2.200000047683716,
                2.200000047683716
            ],
            "translation" : [
                -48.652828216552734,
                36.837921142578125,
                -39.69847106933594
            ]
        },
        {
            "mesh" : 1,
            "name" : "Grass.001"
        },
        {
            "children" : [
                2
            ],
            "name" : "Grass",
            "rotation" : [
                0,
                1,
                0,
                0
            ],
            "scale" : [
                2.200000047683716,
                2.200000047683716,
                2.200000047683716
            ],
            "translation" : [
                90.1622085571289,
                3.4401700496673584,
                -4.437809944152832
            ]
        },
        {
            "name" : "Windows.001",
            "rotation" : [
                0,
                0.6293458938598633,
                0,
                0.7771252989768982
            ],
            "scale" : [
                1.8221534490585327,
                1.822160005569458,
                1.8221534490585327
            ],
            "translation" : [
                -54.334590911865234,
                -4.840569972991943,
                -82.35671997070312
            ]
        },
        {
            "children" : [
                1,
                3,
                4
            ],
            "name" : "Root"
        },
        {
            "children" : [
                5
            ],
            "name" : "RootNode (model correction matrix)"
        },
        {
            "children" : [
                6
            ],
            "name" : "RootNode (gltf orientation matrix)"
        }
    ],
    "meshes" : [
        {
            "name" : "Castle",
            "primitives" : [
                {
                    "attributes" : {
                        "POSITION" : 0,
                        "NORMAL" : 1
                    },
                    "indices" : 2
                }
            ]
        },
        {
            "name" : "Grass",
            "primitives" : [
                {
                    "attributes" : {
                        "POSITION" : 3,
                        "NORMAL" : 4
                    },
                    "indices" : 5
                }
            ]
        }
    ],
    "accessors" : [
        {
            "bufferView" : 0,
            "componentType" : 5126,
            "count" : 45,
            "max" : [
                0.7581400275230408,
                -11.250349998474121,
                29.87026023864746
            ],
            "min" : [
                -28.421489715576172,
                -12.544560432434082,
                19.89311981201172
            ],
            "type" : "VEC3"
        },
        {
            "bufferView" : 1,
            "componentType" : 5126,
            "count" : 45,
            "type" : "VEC3"
        },
        {
            "bufferView" : 2,
            "componentType" : 5123,
            "count" : 144,
            "type" : "SCALAR"
        },
        {
            "bufferView" : 3,
            "componentType" : 5126,
            "count" : 1372,
            "max" : [
                99.5937271118164,
                5.865970134735107,
                54.664390563964844
            ],
            "min" : [
                -20.771150588989258,
                -14.286479949951172,
                -53.612300872802734
            ],
            "type" : "VEC3"
        },
        {
            "bufferView" : 4,
            "componentType" : 5126,
            "count" : 1372,
            "type" : "VEC3"
        },
        {
            "bufferView" : 5,
            "componentType" : 5123,
            "count" : 4128,
            "type" : "SCALAR"
        }
    ],
    "bufferViews" : [
        {
            "buffer" : 0,
            "byteLength" : 540,
            "byteOffset" : 0
        },
        {
            "buffer" : 0,
            "byteLength" : 540,
            "byteOffset" : 540
        },
        {
            "buffer" : 0,
            "byteLength" : 288,
            "byteOffset" : 1080
        },
        {
            "buffer" : 0,
            "byteLength" : 16464,
            "byteOffset" : 1368
        },
        {
            "buffer" : 0,
            "byteLength" : 16464,
            "byteOffset" : 17832
        },
        {
            "buffer" : 0,
            "byteLength" : 8256,
            "byteOffset" : 34296
        }
    ],
    "buffers" : [
        {
            "byteLength" : 42552,
            "uri" : "data:application/octet-stream;base64,"
        }
    ]
}
