{
    "asset" : {
        "generator" : "Khronos glTF Blender I/O v1.3.48",
        "version" : "2.0"
    },
    "scene" : 0,
    "scenes" : [
        {
            "name" : "Scene",
            "nodes" : [
                0
            ]
        }
    ],
    "nodes" : [
        {
            "mesh" : 0,
            "name" : "Simply box.042",
            "rotation" : [
                0,
                0.8920773863792419,
                0,
                0.45188266038894653
            ],
            "scale" : [
                15.091564178466797,
                2.6964478492736816,
                0.6058783531188965
            ],
            "translation" : [
                -4.646903991699219,
                40.35105514526367,
                -6.47784423828125
            ]
        }
    ],
    "meshes" : [
        {
            "name" : "Cube.079",
            "primitives" : [
                {
                    "attributes" : {
                        "POSITION" : 0,
                        "NORMAL" : 1,
                        "TEXCOORD_0" : 2,
                        "TEXCOORD_1" : 3
                    },
                    "indices" : 4
                }
            ]
        }
    ],
    "accessors" : [
        {
            "bufferView" : 0,
            "componentType" : 5126,
            "count" : 14198,
            "max" : [
                14.185844421386719,
                12.539342880249023,
                671.1822509765625
            ],
            "min" : [
                -20.929607391357422,
                -17.23526382446289,
                -209.98590087890625
            ],
            "type" : "VEC3"
        },
        {
            "bufferView" : 1,
            "componentType" : 5126,
            "count" : 14198,
            "type" : "VEC3"
        },
        {
            "bufferView" : 2,
            "componentType" : 5126,
            "count" : 14198,
            "type" : "VEC2"
        },
        {
            "bufferView" : 3,
            "componentType" : 5126,
            "count" : 14198,
            "type" : "VEC2"
        },
        {
            "bufferView" : 4,
            "componentType" : 5123,
            "count" : 23073,
            "type" : "SCALAR"
        }
    ],
    "bufferViews" : [
        {
            "buffer" : 0,
            "byteLength" : 170376,
            "byteOffset" : 0
        },
        {
            "buffer" : 0,
            "byteLength" : 170376,
            "byteOffset" : 170376
        },
        {
            "buffer" : 0,
            "byteLength" : 113584,
            "byteOffset" : 340752
        },
        {
            "buffer" : 0,
            "byteLength" : 113584,
            "byteOffset" : 454336
        },
        {
            "buffer" : 0,
            "byteLength" : 46146,
            "byteOffset" : 567920
        }
    ],
    "buffers" : [
        {
            "byteLength" : 614068,
            "uri" : "islands_physics.bin"
        }
    ]
}
